HIERARCHY
ROOT Hips
{
	OFFSET 0.000000 0.000000 0.000000
	CHANNELS 6 Xposition Yposition Zposition Xrotation Yrotation Zrotation
	JOINT LeftUpLeg_virtual
	{
		OFFSET 0.000000 0.000000 0.000000
		CHANNELS 3 Xrotation Yrotation Zrotation
		JOINT LeftUpLeg
		{
			OFFSET 10.205400 -3.823500 0.155100
			CHANNELS 3 Xrotation Yrotation Zrotation
			JOINT LeftLeg
			{
				OFFSET 0.708757 -12.982077 0.567790
				CHANNELS 3 Xrotation Yrotation Zrotation
				JOINT LeftFoot
				{
					OFFSET -0.708756 -10.717838 -2.184338
					CHANNELS 3 Xrotation Yrotation Zrotation
					JOINT LeftToeBase
					{
						OFFSET 0.108149 -7.191104 7.560241
						CHANNELS 3 Xrotation Yrotation Zrotation
						JOINT LeftToe_End
						{
							OFFSET 0.070230 0.081724 4.490308
							CHANNELS 3 Xrotation Yrotation Zrotation
							End Site
							{
								OFFSET 0 0 0
							}
						}
					}
				}
			}
		}
	}
	JOINT RightUpLeg_virtual
	{
		OFFSET 0.000000 0.000000 0.000000
		CHANNELS 3 Xrotation Yrotation Zrotation
		JOINT RightUpLeg
		{
			OFFSET -10.205400 -3.823500 0.005500
			CHANNELS 3 Xrotation Yrotation Zrotation
			JOINT RightLeg
			{
				OFFSET -0.708756 -12.982134 0.610632
				CHANNELS 3 Xrotation Yrotation Zrotation
				JOINT RightFoot
				{
					OFFSET 0.708754 -10.717769 -1.945823
					CHANNELS 3 Xrotation Yrotation Zrotation
					JOINT RightToeBase
					{
						OFFSET -0.108140 -7.191069 7.372968
						CHANNELS 3 Xrotation Yrotation Zrotation
						JOINT RightToe_End
						{
							OFFSET -0.070227 0.081735 4.479403
							CHANNELS 3 Xrotation Yrotation Zrotation
							End Site
							{
								OFFSET 0 0 0
							}
						}
					}
				}
			}
		}
	}
	JOINT Spine_virtual
	{
		OFFSET 0.000000 0.000000 0.000000
		CHANNELS 3 Xrotation Yrotation Zrotation
		JOINT Spine
		{
			OFFSET 0.000000 6.876099 0.125700
			CHANNELS 3 Xrotation Yrotation Zrotation
			JOINT Spine1
			{
				OFFSET 0.000000 5.730043 0.104720
				CHANNELS 3 Xrotation Yrotation Zrotation
				JOINT Spine1_split
				{
					OFFSET 0.000000 5.730043 0.104720
					CHANNELS 3 Xrotation Yrotation Zrotation
					JOINT Spine2
					{
						OFFSET 0.000000 5.730043 0.104720
						CHANNELS 3 Xrotation Yrotation Zrotation
						JOINT Neck_virtual
						{
							OFFSET 0.000000 0.000000 0.000000
							CHANNELS 3 Xrotation Yrotation Zrotation
							JOINT Neck
							{
								OFFSET 0.000000 10.314075 0.188496
								CHANNELS 3 Xrotation Yrotation Zrotation
								JOINT Head
								{
									OFFSET 0.000000 7.643700 -2.377400
									CHANNELS 3 Xrotation Yrotation Zrotation
									JOINT HeadTop_End
									{
										OFFSET 0.000000 43.788605 -13.619600
										CHANNELS 3 Xrotation Yrotation Zrotation
										End Site
										{
											OFFSET 0 0 0
										}
									}
								}
							}
						}
						JOINT LeftShoulder_virtual
						{
							OFFSET 0.000000 0.000000 0.000000
							CHANNELS 3 Xrotation Yrotation Zrotation
							JOINT LeftShoulder
							{
								OFFSET 2.196100 4.412489 0.087492
								CHANNELS 3 Xrotation Yrotation Zrotation
								JOINT LeftShoulder_split
								{
									OFFSET 2.196100 4.412489 0.087492
									CHANNELS 3 Xrotation Yrotation Zrotation
									JOINT LeftArm
									{
										OFFSET 8.771219 -2.981674 -0.026999
										CHANNELS 3 Xrotation Yrotation Zrotation
										JOINT LeftForeArm
										{
											OFFSET 8.512804 0.000000 -0.000000
											CHANNELS 3 Xrotation Yrotation Zrotation
											JOINT LeftHand
											{
												OFFSET 18.484802 0.000000 -0.000000
												CHANNELS 3 Xrotation Yrotation Zrotation
												End Site
												{
													OFFSET 0 0 0
												}
											}
										}
									}
								}
							}
						}
						JOINT RightShoulder_virtual
						{
							OFFSET 0.000000 0.000000 0.000000
							CHANNELS 3 Xrotation Yrotation Zrotation
							JOINT RightShoulder
							{
								OFFSET -2.196100 4.412496 0.070690
								CHANNELS 3 Xrotation Yrotation Zrotation
								JOINT RightShoulder_split
								{
									OFFSET -2.196100 4.412496 0.070690
									CHANNELS 3 Xrotation Yrotation Zrotation
									JOINT RightArm
									{
										OFFSET -8.771282 -2.981682 -0.094208
										CHANNELS 3 Xrotation Yrotation Zrotation
										JOINT RightForeArm
										{
											OFFSET -8.494598 0.000000 0.000000
											CHANNELS 3 Xrotation Yrotation Zrotation
											JOINT RightHand
											{
												OFFSET -18.483803 0.000000 0.000001
												CHANNELS 3 Xrotation Yrotation Zrotation
												End Site
												{
													OFFSET 0 0 0
												}
											}
										}
									}
								}
							}
						}
					}
				}
			}
		}
	}
}
MOTION
Frames: 4
Frame Time: 0.03333333
-1.086519 33.649929 -0.090958 0.000000 0.000000 0.000000 -6.185591 -16.206661 -0.774723 6.520394 22.054425 5.323990 12.431733 4.457794 -0.354948 -20.458611 0.070753 -4.593793 2.639236 0.623191 -1.240717 0.000000 0.000000 0.000000 -6.113892 -13.776698 -0.544116 -4.349056 -7.634405 -13.289055 15.907698 -10.585571 -0.075513 -3.330696 -4.191554 7.778796 -3.351169 -0.449321 0.049806 0.000000 0.000000 0.000000 -6.002443 -16.704933 -1.123244 10.043511 2.165681 -0.217999 -4.509978 1.402343 -1.030509 0.921776 0.417987 0.212194 0.000000 0.000000 0.000000 -5.658159 3.779031 -1.300175 5.138082 3.491903 1.392940 1.378376 -6.621161 4.770495 0.000000 0.000000 0.000000 -6.204286 3.854624 -1.594005 2.360770 -12.513215 -2.586484 -2.360419 -2.348883 -0.089151 15.138605 6.277769 -75.016671 3.569865 -9.855157 0.867493 0.000000 0.000000 0.000000 -5.032079 3.888116 -1.541339 1.125087 3.011914 4.528872 -2.907317 -0.897609 -1.461715 0.470066 7.326352 80.060513 2.342017 19.873491 1.703221 0.000000 0.000000 0.000000 
-1.051860 33.628754 -0.104162 0.000000 0.000000 0.000000 -6.244807 -16.619063 -0.738579 6.125434 21.902567 5.406645 13.146791 4.450237 -0.245062 -20.584238 0.053782 -4.676341 2.710618 0.606605 -1.309551 0.000000 0.000000 0.000000 -6.148381 -14.130054 -0.527384 -4.419226 -7.771377 -13.162781 15.689496 -10.671138 -0.217709 -3.082879 -4.261661 7.966786 -3.749484 -0.417398 0.067805 0.000000 0.000000 0.000000 -6.117721 -16.809208 -1.132470 9.962306 2.136270 -0.219006 -4.551744 1.384107 -1.072776 0.801335 0.512533 0.181420 0.000000 0.000000 0.000000 -5.796173 3.762919 -1.335826 5.187622 3.494065 1.447917 1.402788 -6.643263 4.764592 0.000000 0.000000 0.000000 -6.220180 3.843266 -1.646655 2.340287 -12.445037 -2.720929 -2.340621 -2.257160 -0.052241 15.102670 6.693903 -74.737610 3.387121 -9.765149 0.681654 0.000000 0.000000 0.000000 -5.027279 3.889482 -1.600482 1.088519 3.109798 4.693240 -2.799598 -0.859506 -1.437351 0.543897 7.387965 80.198968 2.413119 20.458095 1.708161 0.000000 0.000000 0.000000 
-1.002641 33.577065 -0.150383 0.000000 0.000000 0.000000 -6.196357 -16.970771 -0.775986 5.097716 21.629051 5.883751 14.870894 4.232342 -0.089237 -20.836759 -0.233340 -4.635211 2.648720 0.578681 -1.417321 0.000000 0.000000 0.000000 -6.230049 -14.346403 -0.610565 -4.424424 -8.320039 -12.933732 15.592717 -10.573605 -0.328848 -3.546985 -4.257753 8.303602 -3.497171 -0.299920 0.116272 0.000000 0.000000 0.000000 -6.110189 -16.950117 -1.186328 9.856637 2.087000 -0.174037 -4.588419 1.355893 -1.136383 0.762951 0.521876 0.162658 0.000000 0.000000 0.000000 -5.936031 3.737122 -1.399730 5.244232 3.494395 1.421479 1.382780 -6.740229 4.931488 0.000000 0.000000 0.000000 -6.220658 3.816506 -1.704650 2.288951 -12.340667 -2.942667 -2.331608 -2.292207 -0.071128 15.117367 7.083801 -74.079733 3.440632 -9.558484 0.562780 0.000000 0.000000 0.000000 -5.016044 3.876904 -1.665922 1.024895 3.131999 4.987828 -2.838388 -0.891236 -1.454557 0.616209 7.992604 80.043923 2.667038 21.066945 1.767250 0.000000 0.000000 0.000000 
-0.934911 33.501106 -0.251310 0.000000 0.000000 0.000000 -6.066904 -17.145981 -0.839337 3.622455 21.361951 6.572613 17.181792 3.922143 0.051824 -21.185712 -0.744812 -4.376361 2.494929 0.534618 -1.473243 0.000000 0.000000 0.000000 -6.342510 -14.349915 -0.741998 -4.458298 -9.152520 -12.717088 15.531623 -10.268837 -0.408451 -4.514355 -4.182336 8.770457 -2.625645 -0.106770 0.201606 0.000000 0.000000 0.000000 -5.973028 -17.099664 -1.267271 9.766365 2.025045 -0.113128 -4.607134 1.333039 -1.206721 0.818749 0.545967 0.165784 0.000000 0.000000 0.000000 -6.068891 3.711542 -1.473309 5.299411 3.478302 1.334153 1.339268 -6.896072 5.242399 0.000000 0.000000 0.000000 -6.202217 3.784373 -1.755920 2.212368 -12.189111 -3.232169 -2.235833 -2.459791 -0.106305 15.047441 7.289597 -73.203529 3.688743 -9.269872 0.471613 0.000000 0.000000 0.000000 -4.993974 3.861145 -1.723726 0.946886 3.071778 5.382352 -2.981841 -0.913560 -1.503067 0.706120 8.943772 79.576239 3.089103 21.599191 1.891707 0.000000 0.000000 0.000000 
